<?xml version="1.0" standalone="no"?>
<!DOCTYPE svg PUBLIC "-//W3C//DTD SVG 20010904//EN"
 "http://www.w3.org/TR/2001/REC-SVG-20010904/DTD/svg10.dtd">
<svg version="1.0" xmlns="http://www.w3.org/2000/svg"
 width="236.000000pt" height="236.000000pt" viewBox="0 0 236.000000 236.000000"
 preserveAspectRatio="xMidYMid meet">
<metadata>
Created by potrace 1.11, written by Peter Selinger 2001-2013
</metadata>
<g transform="translate(0.000000,236.000000) scale(0.100000,-0.100000)"
fill="#000000" stroke="none">
<path d="M860 2346 c0 -8 -28 -39 -62 -68 -34 -29 -93 -82 -130 -117 l-68 -64
0 34 c0 32 -23 146 -31 154 -3 2 -5 -31 -5 -73 -1 -87 -27 -168 -59 -186 -11
-6 -38 -23 -60 -37 -22 -15 -57 -35 -78 -46 l-37 -21 -165 43 -165 42 0 -927
0 -927 25 -11 c14 -7 34 -12 43 -12 15 0 15 -2 2 -10 -12 -7 -12 -12 -2 -22 6
-6 12 -20 12 -30 0 -14 5 -17 24 -12 13 3 27 1 30 -5 11 -16 26 -13 26 5 0 10
-6 14 -15 10 -8 -3 -27 6 -42 20 l-28 25 25 -6 c44 -10 159 -68 154 -77 -3 -4
2 -8 10 -8 9 0 16 5 16 10 0 6 7 10 16 10 8 0 13 -3 11 -7 -3 -5 35 -6 84 -5
49 2 89 0 89 -5 0 -5 -105 -10 -237 -12 -131 -1 -240 -4 -242 -7 -2 -2 148 -4
335 -4 l339 0 30 98 c31 104 87 231 132 299 24 37 33 43 64 43 30 0 43 -8 89
-55 59 -62 215 -183 304 -236 46 -28 58 -41 67 -71 5 -21 14 -38 20 -38 5 0
14 -10 19 -22 8 -21 9 -21 9 -3 1 11 -8 26 -19 33 -18 11 -29 52 -14 52 4 0
22 -9 40 -21 26 -16 34 -27 34 -50 0 -26 3 -29 33 -29 21 0 36 7 44 19 12 19
129 65 143 56 4 -3 11 -21 14 -40 6 -32 10 -36 34 -33 24 3 27 8 30 43 3 29
-1 43 -15 52 -18 14 -37 62 -73 183 -20 68 -60 174 -78 206 -10 17 -11 17 -17
-8 -4 -15 -1 -37 8 -54 8 -16 24 -60 36 -99 12 -38 24 -78 27 -89 4 -11 2 -16
-4 -12 -6 4 -19 -2 -29 -12 -10 -11 -34 -25 -54 -31 -20 -6 -46 -23 -59 -36
-22 -23 -25 -24 -41 -9 -13 12 -28 15 -49 10 -26 -5 -44 3 -108 46 -70 47
-212 156 -212 163 0 2 20 -3 44 -10 56 -17 211 -28 254 -18 23 6 -1 8 -75 9
-130 1 -235 25 -278 63 -18 15 -14 8 10 -17 48 -52 214 -179 308 -234 37 -23
65 -43 63 -46 -22 -21 -446 294 -446 332 0 7 -28 17 -74 25 -44 7 -89 22 -109
35 -33 22 -34 23 -46 5 -15 -25 -44 -24 -98 2 -57 28 -83 65 -83 123 0 34 6
50 22 66 31 29 53 25 84 -15 39 -52 54 -47 39 13 -7 26 -15 72 -19 102 l-7 55
19 -33 18 -33 -4 144 c-3 85 0 152 5 162 9 15 11 12 17 -18 14 -77 26 -47 27
70 0 132 11 184 23 118 13 -67 18 -62 41 36 23 100 72 270 80 278 3 2 5 -18 5
-44 0 -29 4 -45 9 -40 8 10 38 87 88 233 14 40 28 71 31 68 3 -4 8 -36 12 -74
6 -65 7 -66 19 -37 7 17 24 76 38 131 l25 102 59 -34 c65 -36 127 -81 146
-104 19 -23 16 2 -7 54 -10 25 -17 46 -14 46 7 0 113 -79 157 -118 22 -18 41
-31 44 -28 3 2 -7 30 -21 62 -15 31 -25 59 -22 61 2 2 47 -42 100 -98 95 -100
105 -106 86 -52 -9 26 -7 25 26 -12 20 -22 61 -76 92 -119 44 -62 57 -75 62
-61 5 15 10 12 29 -18 32 -52 60 -199 68 -352 6 -128 6 -130 38 -166 122 -136
-33 -328 -350 -433 -118 -40 -360 -85 -491 -93 -114 -6 -115 -6 -77 -20 55
-21 83 -26 48 -10 -29 13 -27 14 60 21 50 4 145 18 210 31 66 12 122 21 124
20 12 -12 -63 -59 -122 -77 -56 -16 -86 -20 -156 -16 -47 3 -75 2 -61 -2 51
-16 157 -10 226 11 52 16 78 31 107 61 27 28 44 39 58 35 10 -3 22 -1 25 4 10
17 48 9 125 -24 94 -42 193 -111 259 -184 54 -58 129 -179 156 -248 l15 -40
119 0 120 0 -2 690 -3 689 -140 37 c-77 20 -156 40 -175 45 -30 8 -40 19 -67
74 -18 35 -31 66 -29 68 2 2 21 -6 42 -17 58 -31 73 -26 35 12 -28 27 -157
207 -149 207 2 0 25 -7 52 -15 76 -23 82 -18 28 23 -27 20 -85 70 -128 111
l-78 73 39 -2 c74 -5 126 0 120 10 -3 6 -15 10 -26 10 -10 0 -86 27 -167 60
-82 33 -154 60 -161 60 -23 0 0 19 32 25 17 4 48 16 67 26 l35 20 -35 -8 c-46
-10 -126 -5 -229 13 -46 7 -107 14 -135 14 -47 1 -50 2 -31 15 65 48 104 81
105 88 0 4 -8 3 -17 -2 -10 -5 -76 -21 -148 -36 -123 -25 -319 -74 -357 -90
-23 -9 -23 -9 12 68 32 71 36 87 20 87 -5 0 -10 -6 -10 -14z m430 -51 c0 -8
-85 -53 -114 -59 -48 -12 -19 -21 69 -22 45 -1 136 -10 201 -20 l119 -18 -47
-10 c-47 -9 -66 -26 -30 -26 29 -1 122 -36 115 -44 -4 -4 0 -4 9 -1 8 3 55
-12 104 -33 49 -22 96 -42 104 -45 26 -9 -43 -7 -84 3 -59 13 -63 2 -11 -31
30 -19 44 -34 39 -42 -4 -6 -4 -9 1 -5 8 7 31 -10 117 -87 l47 -42 -36 12
c-36 12 -76 52 -67 67 3 4 -2 5 -11 2 -18 -7 -4 -34 77 -147 27 -37 45 -73 42
-79 -4 -7 -2 -8 5 -4 6 4 14 0 18 -11 4 -10 14 -24 22 -31 9 -7 1 -5 -17 4
-17 10 -35 26 -38 36 -6 19 -24 25 -24 9 0 -5 9 -30 20 -56 11 -26 17 -52 13
-57 -3 -6 -2 -8 4 -5 5 3 19 -16 30 -44 25 -57 14 -64 -21 -13 -29 42 -40 32
-24 -22 6 -21 11 -43 9 -48 -1 -4 2 -13 7 -20 5 -6 12 -21 15 -34 4 -19 3 -21
-9 -11 -11 9 -14 7 -15 -12 -1 -32 -17 28 -23 91 -3 25 -12 63 -19 85 -11 31
-19 39 -36 38 -15 -2 -21 3 -21 17 0 11 -5 20 -10 20 -6 0 -8 -17 -5 -42 4
-36 3 -40 -7 -23 -6 11 -16 24 -20 30 -38 44 -96 131 -92 137 3 5 1 7 -4 6
-11 -3 -48 34 -75 75 -19 30 -43 38 -27 10 5 -10 17 -34 26 -53 l16 -35 -30
29 c-17 16 -29 34 -25 39 3 6 1 7 -5 3 -6 -3 -17 2 -24 11 -22 30 -110 103
-124 103 -9 0 -4 -14 14 -42 16 -24 34 -56 40 -72 l13 -29 -34 29 c-19 16 -32
33 -29 38 3 5 -1 6 -8 1 -7 -4 -15 -3 -19 2 -9 14 -133 95 -137 90 -3 -2 8
-26 23 -53 l27 -49 -24 17 c-50 35 -174 108 -177 104 -2 -2 -16 -52 -30 -112
l-27 -109 -7 51 c-13 98 -23 95 -57 -13 -18 -55 -43 -124 -56 -154 l-25 -54 0
67 c-1 37 -5 70 -11 73 -6 4 -10 -11 -10 -37 0 -24 -20 -108 -45 -186 -25 -79
-45 -153 -45 -165 0 -15 -3 -18 -11 -10 -6 6 -11 45 -11 87 1 88 -14 110 -22
34 -27 -233 -34 -288 -35 -255 -1 20 -5 37 -10 37 -13 0 -25 -116 -24 -234 0
-87 -1 -95 -12 -69 -7 17 -16 44 -20 61 -3 18 -11 32 -16 32 -6 0 -8 -8 -5
-17 3 -10 12 -65 21 -123 9 -58 20 -120 25 -139 l9 -34 -29 34 c-16 19 -32 43
-35 54 -3 11 -19 28 -36 37 -16 10 -34 28 -39 40 -5 13 -9 19 -10 13 -2 -17
-40 89 -40 112 0 12 -4 24 -9 27 -9 6 -23 -53 -25 -101 -2 -40 -13 -34 -25 13
-7 25 -9 56 -6 67 5 16 4 18 -3 8 -16 -23 -25 85 -20 221 4 87 2 116 -6 108
-12 -12 -16 -281 -4 -340 l7 -35 -19 39 c-10 22 -24 66 -31 98 -7 32 -17 58
-21 58 -12 0 -10 -30 8 -95 9 -33 18 -80 20 -105 4 -42 3 -44 -11 -26 -8 11
-15 26 -15 33 0 7 -4 13 -10 13 -5 0 -12 11 -16 25 -12 48 -27 27 -21 -30 3
-33 2 -55 -4 -55 -6 0 -9 6 -8 13 2 6 -4 28 -13 48 -9 20 -23 61 -32 92 -20
69 -35 74 -30 10 2 -27 -4 -5 -12 47 -10 66 -14 140 -11 240 4 126 8 154 31
215 36 94 38 100 34 100 -1 0 5 11 15 25 19 28 22 40 7 40 -5 0 -16 -13 -24
-29 -9 -16 -22 -31 -31 -35 -8 -3 2 18 23 47 21 28 44 63 51 75 21 40 83 102
94 95 6 -4 8 0 5 9 -4 9 4 21 23 32 50 30 35 48 -17 21 -16 -8 -36 -15 -44
-15 -17 0 92 72 154 101 38 17 44 25 58 77 l16 57 -1 -42 c0 -25 -4 -40 -10
-36 -6 3 -7 1 -3 -5 7 -12 36 -5 36 8 0 16 58 72 69 66 6 -4 9 -2 6 6 -3 8 21
36 60 68 95 79 103 81 71 25 -14 -27 -23 -52 -19 -56 5 -4 29 3 55 16 26 13
69 28 95 33 26 6 77 17 113 26 36 8 103 24 150 34 47 11 86 20 88 21 1 0 2 -1
2 -4z m-1133 -391 c-3 -3 -12 -4 -19 -1 -8 3 -5 6 6 6 11 1 17 -2 13 -5z
m1704 -376 c11 -21 11 -22 -4 -9 -10 7 -17 17 -17 22 0 15 9 10 21 -13z m133
-116 c3 -5 -1 -9 -9 -9 -8 0 -12 4 -9 9 3 4 7 8 9 8 2 0 6 -4 9 -8z m181 -52
c3 -5 -1 -10 -10 -10 -9 0 -13 5 -10 10 3 6 8 10 10 10 2 0 7 -4 10 -10z m42
-16 c-3 -3 -12 -4 -19 -1 -8 3 -5 6 6 6 11 1 17 -2 13 -5z m-2060 -56 c-3 -8
-6 -5 -6 6 -1 11 2 17 5 13 3 -3 4 -12 1 -19z m1462 -924 c17 -47 31 -93 30
-102 0 -9 -16 28 -35 83 -37 110 -36 105 -30 105 2 0 18 -38 35 -86z m31 -161
c0 -5 -11 -18 -23 -30 -19 -17 -30 -20 -58 -14 l-34 8 32 7 c17 4 34 14 37 22
5 14 46 20 46 7z m-132 -68 c-6 -14 -18 -25 -26 -25 -12 0 -10 6 8 25 13 14
25 25 27 25 1 0 -3 -11 -9 -25z m-73 -15 c11 -13 14 -20 6 -20 -18 0 -51 19
-51 30 0 17 26 11 45 -10z m194 -13 c-18 -13 -129 -54 -129 -47 0 9 123 60
129 54 2 -2 2 -5 0 -7z m-199 -17 c13 -8 13 -10 -2 -10 -9 0 -20 5 -23 10 -8
13 5 13 25 0z"/>
<path d="M547 1543 c-15 -44 -23 -91 -28 -168 -3 -49 -17 48 -18 123 -1 34 -5
62 -11 62 -13 0 -13 -111 0 -181 13 -70 51 -173 59 -160 4 5 4 45 0 88 -7 85
4 211 20 242 13 23 14 41 3 41 -4 0 -16 -21 -25 -47z"/>
<path d="M296 1339 c-3 -17 -6 -70 -7 -118 -1 -97 -10 -83 -30 44 -14 90 -34
115 -24 30 12 -108 58 -285 73 -285 8 0 6 349 -1 356 -2 3 -7 -10 -11 -27z"/>
<path d="M1005 1400 c-3 -6 1 -7 9 -4 18 7 21 14 7 14 -6 0 -13 -4 -16 -10z"/>
<path d="M1638 1203 c6 -2 18 -2 25 0 6 3 1 5 -13 5 -14 0 -19 -2 -12 -5z"/>
<path d="M1583 1163 c4 -3 -3 -17 -15 -30 l-22 -24 44 7 c38 6 43 5 34 -7 -32
-39 -22 -128 12 -115 24 9 45 -5 39 -25 -5 -16 -1 -19 22 -19 32 0 103 30 120
51 27 33 26 65 -6 101 l-30 35 57 -4 c74 -4 50 12 -39 26 -71 12 -226 15 -216
4z m217 -158 c0 -2 -10 -9 -22 -15 -22 -11 -22 -10 -4 4 21 17 26 19 26 11z"/>
<path d="M1055 1027 c-87 -35 -222 -121 -270 -170 -26 -27 -26 -29 -5 -14 47
32 147 87 158 87 8 0 8 -8 1 -29 -6 -16 -9 -42 -7 -58 3 -26 6 -28 42 -25 36
4 38 2 33 -18 -6 -22 -4 -22 46 -17 61 8 94 30 122 80 19 36 19 37 1 71 -10
18 -29 39 -42 46 -30 17 -27 20 38 35 41 10 48 14 33 20 -11 3 -28 11 -37 16
-24 12 -23 13 -113 -24z"/>
<path d="M1570 745 c0 -8 4 -15 10 -15 5 0 7 7 4 15 -4 8 -8 15 -10 15 -2 0
-4 -7 -4 -15z"/>
<path d="M1460 695 c0 -14 2 -25 4 -25 2 0 6 11 8 25 3 14 1 25 -3 25 -5 0 -9
-11 -9 -25z"/>
<path d="M584 664 c-18 -14 -18 -15 4 -4 18 9 23 8 28 -5 3 -8 3 -22 0 -31 -3
-8 -2 -12 4 -9 6 3 10 13 10 21 0 29 20 13 21 -18 2 -32 2 -32 6 -5 3 18 -2
36 -13 48 -21 23 -34 24 -60 3z"/>
<path d="M632 554 c10 -10 20 -16 22 -13 3 3 -5 11 -17 18 -21 13 -21 12 -5
-5z"/>
<path d="M1541 422 c-5 -10 -35 -32 -65 -48 -65 -34 -67 -43 -5 -15 45 19 97
66 87 77 -4 3 -11 -3 -17 -14z"/>
<path d="M1717 363 c16 -11 35 -63 23 -63 -5 0 -12 5 -15 10 -3 6 -11 10 -17
10 -6 0 16 -28 50 -62 66 -68 105 -119 158 -207 19 -31 34 -48 34 -39 0 18
-35 74 -114 182 -28 38 -62 92 -76 120 -14 28 -32 52 -40 54 -11 2 -11 1 -3
-5z"/>
<path d="M1006 163 c3 -21 10 -59 16 -86 5 -26 7 -54 4 -62 -3 -9 0 -15 8 -15
9 0 13 20 15 73 1 44 -2 67 -7 59 -7 -11 -10 -10 -16 3 -3 9 -6 25 -6 35 0 10
-4 21 -9 25 -6 3 -8 -10 -5 -32z"/>
<path d="M0 110 c0 -11 1 -20 3 -20 1 0 10 9 20 20 16 19 16 20 -3 20 -13 0
-20 -7 -20 -20z"/>
</g>
</svg>
